<?xml version="1.0" encoding="utf-8"?>
<!-- Generator: Adobe Illustrator 23.0.0, SVG Export Plug-In . SVG Version: 6.00 Build 0)  -->
<svg version="1.1" id="Calque_1" xmlns="http://www.w3.org/2000/svg" xmlns:xlink="http://www.w3.org/1999/xlink" x="0px" y="0px"
	 viewBox="0 0 181.4 181.4" style="enable-background:new 0 0 181.4 181.4;" xml:space="preserve">
<style type="text/css">
	.st0{fill:#4A90E2;}
	.st1{fill:#070033;}
	.st2{fill:#FFFFFF;}
</style>
<title>nanchat-logo</title>
<path class="st0" d="M90.7,32.7c-36.7,0-66.6,24.8-66.6,55.4c0,19.5,12.3,37.5,32.3,47.5c-2.6,5.9-5.4,8.5-11.6,16.3
	c5.6-1,23.6-8.4,27-10.6c6.2,1.5,12.5,2.3,18.8,2.3c36.8,0,66.6-24.8,66.6-55.5S127.5,32.7,90.7,32.7z"/>
<path class="st1" d="M127.5,96.2c-4.1,4.1-10.6,4.1-14.7,0c-5.5-5.5-9.2-5.5-14.7,0c-4.1,4.1-10.6,4.1-14.7,0l0,0
	c-5.5-5.5-9.2-5.5-14.7,0c-4.1,4.1-10.6,4.1-14.7,0s-4.1-10.6,0-14.7s10.6-4.1,14.7,0l0,0c5.5,5.5,9.2,5.5,14.7,0
	c4.1-4.1,10.6-4.1,14.7,0l0,0c5.5,5.5,9.2,5.5,14.7,0c4.1-4,10.7-3.9,14.7,0.3C131.3,85.8,131.3,92.1,127.5,96.2z"/>
<path class="st2" d="M60.6,148.5"/>
<path class="st2" d="M70,144.2"/>
</svg>
