<svg xmlns="http://www.w3.org/2000/svg" width="63.99mm" height="63.99mm" viewBox="0 0 181.4 181.39"><title>nanchat-v3</title><circle cx="90.69" cy="90.69" r="90.69" fill="#4a90e2"/><path d="M145.74,181.39H35.7A35.73,35.73,0,0,1,0,145.64V35.75A35.73,35.73,0,0,1,35.7,0h110a35.73,35.73,0,0,1,35.7,35.75V145.91A35.84,35.84,0,0,1,145.74,181.39Z" transform="translate(0 0)" fill="#1677ff"/><path d="M90.71,33.41C54,33.41,24.13,58.24,24.13,88.85c0,18.91,11.62,36.45,30.66,46.62a2,2,0,0,1,.86,2.62c-1.75,3.44-3.7,5.88-6.8,9.64A2,2,0,0,0,51,150.85c7-2.41,16.79-6.51,20.17-8.44a2,2,0,0,1,1.44-.21,78.3,78.3,0,0,0,18,2.11c36.78,0,66.58-24.83,66.58-55.46S127.49,33.41,90.71,33.41Z" transform="translate(0 0)" fill="#fff"/><path d="M126.28,97.8a10.07,10.07,0,0,1-14.22,0c-5.32-5.33-8.87-5.33-14.2,0a10.06,10.06,0,0,1-14.2,0h0c-5.33-5.33-8.88-5.33-14.2,0a10.05,10.05,0,1,1,0-14.22h0c5.32,5.33,8.87,5.33,14.2,0a10,10,0,0,1,14.2,0h0c5.33,5.33,8.88,5.33,14.2,0a10.05,10.05,0,0,1,14.22,14.21Z" transform="translate(0 0)" fill="#1677ff"/><path d="M60.61,148.49" transform="translate(0 0)" fill="#fff"/><path d="M70,144.17" transform="translate(0 0)" fill="#fff"/></svg>